<svg xmlns="http://www.w3.org/2000/svg" width="1004" height="132.741" viewBox="0 0 1004 132.741">
  <g id="tools" transform="translate(-37 -375.259)">
    <path id="Path_468" data-name="Path 468" d="M59.049,0,7.339,29.855v59.7L27.164,78.11v-23.4a1.145,1.145,0,0,1,1.7-.975l24.087,13.9a2.275,2.275,0,0,1,1.133,1.97v27.8a1.156,1.156,0,0,1-.565.98A1.131,1.131,0,0,1,52.4,98.4L32.127,86.683,12.3,98.143,63.991,128l51.7-29.856L95.876,86.684l-20.261,11.7a1.137,1.137,0,0,1-1.692-.984V69.608a2.25,2.25,0,0,1,1.133-1.968l24.074-13.9a1.144,1.144,0,0,1,1.7.975v23.4l19.83,11.454V29.855h-.009L68.96,0V22.9L89.22,34.6a1.143,1.143,0,0,1,0,1.96L65.137,50.468a2.3,2.3,0,0,1-2.27,0L38.791,36.556a1.137,1.137,0,0,1,0-1.96L59.048,22.9Zm0,0" transform="translate(29.661 380)" fill="#fff"/>
    <path id="c" d="M82.369,60.117h3.486l-.453,4.26H81.928ZM111.8,36.22V89.586a10.4,10.4,0,0,1-4.841,8.385L60.738,124.653a10.738,10.738,0,0,1-9.682,0L4.841,97.97A10.6,10.6,0,0,1,0,89.586V36.22a10.739,10.739,0,0,1,4.841-8.385L51.057,1.153a10.738,10.738,0,0,1,9.682,0l46.216,26.683A10.972,10.972,0,0,1,111.8,36.22ZM88.17,81.546,72.042,72.214C61.285,89.435,37.526,81.019,37.265,62.9c.868-19.657,25.041-25.414,34.776-9.312l16.127-9.332C67.151,10.448,18.414,26.516,18.633,62.9,19.567,102.132,69.647,113.7,88.17,81.546Zm3.85-24.395H89.255l.5-4.814H86.682l-.512,4.814H82.676l.5-4.814H80.1l-.512,4.814H76.663v2.966h2.612l-.453,4.26H75.8v2.966h2.7l-.56,5.265h3.129l.545-5.265h3.465l-.56,5.265h3.129l.545-5.265h2.96V64.377H88.507l.441-4.26H92.02Z" transform="translate(178.762 380)" fill="#fff"/>
    <g id="SVGRepo_iconCarrier" transform="translate(294.29 375.259)">
      <g id="XMLID_197_" transform="translate(24.71)">
        <path id="XMLID_221_" d="M120.091,184.808a8.189,8.189,0,0,0,8-8V158.139h5.339a5.044,5.044,0,0,0,5.339-5.339V99.466H74.749V152.8a5.044,5.044,0,0,0,5.339,5.339h5.339v18.673a8,8,0,1,0,15.991,0V158.139H112.1v18.673A8.188,8.188,0,0,0,120.091,184.808Z" transform="translate(-53.42 -57.068)" fill="#fff"/>
        <path id="XMLID_222_" d="M245.452,152.8a8.188,8.188,0,0,0,7.995-8V107.458a8,8,0,0,0-15.991,0V144.8A8.188,8.188,0,0,0,245.452,152.8Z" transform="translate(-146.771 -57.068)" fill="#fff"/>
        <path id="XMLID_223_" d="M32.7,152.8a8.188,8.188,0,0,0,8-8V107.458a8.2,8.2,0,0,0-8-7.992,8.2,8.2,0,0,0-7.995,7.992V144.8A8.188,8.188,0,0,0,32.7,152.8Z" transform="translate(-24.71 -57.068)" fill="#fff"/>
        <path id="XMLID_224_" d="M132.358.806a2.554,2.554,0,0,0-3.724,0l-7.161,7.137-.33.33a31.62,31.62,0,0,0-14.308-3.2h-.157a31.617,31.617,0,0,0-14.307,3.2l-.331-.33L84.88.806a2.554,2.554,0,0,0-3.724,0,2.561,2.561,0,0,0,0,3.721l6.927,6.928a28.864,28.864,0,0,0-6.016,5.4A31.348,31.348,0,0,0,74.8,35.391c0,.073-.011.146-.014.219q-.034.719-.033,1.445h64.016q0-.726-.033-1.445c0-.073-.011-.146-.015-.219a31.34,31.34,0,0,0-7.271-18.537,28.842,28.842,0,0,0-6.016-5.4l6.928-6.928A2.561,2.561,0,0,0,132.358.806ZM93.413,27.734a4,4,0,1,1,4-4A4,4,0,0,1,93.413,27.734Zm26.688,0a4,4,0,1,1,4-4A4,4,0,0,1,120.1,27.734Z" transform="translate(-53.42)" fill="#fff"/>
      </g>
    </g>
    <g id="SVGRepo_iconCarrier-2" data-name="SVGRepo_iconCarrier" transform="translate(452.807 374.644)">
      <path id="Path_469" data-name="Path 469" d="M25.359,97.455c0-.352,4.2-7.7,4.2-7.7a9.154,9.154,0,0,1,3.013-.5A9.36,9.36,0,0,1,39.7,92.54l.009.013a91.8,91.8,0,0,1-6.139,9.725l.187-.274a5.186,5.186,0,0,1-3.695,1.541,5.312,5.312,0,0,1-1.242-.148l.035.009a4.565,4.565,0,0,1-3.743-4.485,4.5,4.5,0,0,1,.252-1.5l-.009.03ZM10.3,38.985V97.807a19.428,19.428,0,0,0,19.247,19.256H32.71c0-.352,4.2-7.7,13.3-23.107,1.051-2.1,2.449-4.2,3.851-6.652H24.3c-.087,0-.191.009-.3.009a5.116,5.116,0,0,1-4.95-3.825l-.009-.035a4.842,4.842,0,0,1-.178-1.316,4.986,4.986,0,0,1,4.989-4.989H36.908L53.363,48.437s-3.851-7-4.9-8.753a5.14,5.14,0,0,1,.7-6.3h0c2.1-2.1,5.6-3.152,9.1,2.449l1.4,2.1,1.4-2.1c3.152-4.55,5.253-4.2,7-3.851,2.8.7,4.55,3.851,2.1,8.753L48.47,77.145h7.355c2.449-4.2,4.9-8.4,7.355-12.956a14.841,14.841,0,0,1-.465-3.73,15.208,15.208,0,0,1,.126-1.949l-.009.074a14.424,14.424,0,0,1,3.512-7.368l-.013.013,2.1,3.5a207.509,207.509,0,0,0,12.4-23.81l.551-1.4a17.331,17.331,0,0,0,1.094-6.109,17.8,17.8,0,0,0-.412-3.812l.022.117H29.514a19.2,19.2,0,0,0-19.2,19.2v.056Zm100.837-.352V97.846a22.712,22.712,0,0,1-22.712,22.712H64.921s-2.1,5.6,4.55,5.6H90.533a25.852,25.852,0,0,0,25.851-25.851V48.784c.352-4.9-3.851-8.054-5.249-10.155ZM30.96,120.562H29.167A22.712,22.712,0,0,1,6.455,97.85V38.942A22.712,22.712,0,0,1,29.167,16.23H79.978a14.489,14.489,0,0,0-8.18-2.505c-.447,0-.89.022-1.329.061l.056,0A13.326,13.326,0,0,1,68.09,14a13.514,13.514,0,0,1-5.006-.955l.091.03c-2.1-1.75-1.75-2.8-4.9-2.8H27.052A25.852,25.852,0,0,0,1.2,36.128v63.78c0,.174-.009.378-.009.586a24.989,24.989,0,0,0,24.123,24.974h.043c3.5,0,4.55-2.8,5.6-4.9ZM84.181,77.149h8.4c5.6,0,6.652,2.8,6.652,3.851.352,2.8-1.051,6.3-6.652,6.3H87.329l4.2,7c2.449,4.2,1.4,6.3,0,7.7A5.8,5.8,0,0,1,82.44,99.6l-.013-.039-4.9-8.4c-3.5,7.7-7,16.1-11.206,25.907H88.028a19.428,19.428,0,0,0,19.256-19.247V36.536c-.352-.7-1.051-.352-1.4,0A199.817,199.817,0,0,0,84.663,75.786l-.486,1.363ZM103.788,29.88a9.683,9.683,0,0,1,4.6-1.146,10.027,10.027,0,0,1,1.407.1l-.052,0a10.842,10.842,0,0,1,5.232,3.821l.022.03a12.143,12.143,0,0,0,6.569,4.533l.087.022c1.4.352,3.851-3.5,5.6-7a17.047,17.047,0,0,0,2.449-8.38v-.026a13.394,13.394,0,0,0-6.217-3.135l-.087-.013a13.011,13.011,0,0,1-3.282.412c-.447,0-.89-.022-1.324-.065l.056,0a11.572,11.572,0,0,1-6.274-5.2l-.03-.056a25.833,25.833,0,0,0-8.953-7.285l-.152-.065A40.541,40.541,0,0,0,92.478,2.957l-.243-.035a44.941,44.941,0,0,0-13.082-1.9c-1.311,0-2.609.056-3.895.161l.169-.013A44.4,44.4,0,0,0,65.312,3l.313-.082c-.352,0-1.051,1.051-.352,1.051s3.152.352,3.152.352-3.152.7-3.152,1.4.352.7.7.7,8.054-.352,11.206,0a14.062,14.062,0,0,1,9.769,6.591l.035.061a20.839,20.839,0,0,1,2.674,10.286,21.136,21.136,0,0,1-1.32,7.368l.048-.148c-5.253,11.553-46.917,82.627-49.018,87.529s-2.8,8.054,3.152,11.206,9.1,1.75,10.854-.352c2.1-2.8,38.164-93.134,50.416-99.083Z" transform="translate(0)" fill="#fff"/>
    </g>
    <g id="SVGRepo_iconCarrier-3" data-name="SVGRepo_iconCarrier" transform="translate(764.5 378.285)">
      <g id="_2069a460dcf28295e231f3111e037552" data-name="2069a460dcf28295e231f3111e037552" transform="translate(0.5 0.5)">
        <path id="Path_470" data-name="Path 470" d="M104.012.5H21.2A20.763,20.763,0,0,0,.5,21.2v82.81a20.763,20.763,0,0,0,20.7,20.7h82.81a20.763,20.763,0,0,0,20.7-20.7V21.2A20.764,20.764,0,0,0,104.012.5Zm-44,63.207c-4.311,4.311-11.087,6.336-18.742,6.336a30.5,30.5,0,0,1-5.28-.353V92.04H25.257V33.526A93.836,93.836,0,0,1,41.8,32.294c7.92,0,13.727,1.672,17.511,4.84a16.752,16.752,0,0,1,5.807,13.111C65.117,55.876,63.357,60.539,60.013,63.707ZM82.535,92.921a27.641,27.641,0,0,1-13.023-2.992L71.624,82.1a24.144,24.144,0,0,0,11,3.08c4.751,0,6.864-1.936,6.864-4.752,0-2.9-1.76-4.4-7.04-6.247-8.36-2.9-11.878-7.479-11.791-12.5,0-7.567,6.247-13.463,16.19-13.463A25.168,25.168,0,0,1,98.2,50.772l-2.112,7.655a19.251,19.251,0,0,0-9.063-2.464c-3.872,0-5.983,1.848-5.983,4.487,0,2.728,2.024,4.049,7.48,5.984,7.743,2.815,11.351,6.775,11.439,13.111C99.957,87.289,93.886,92.921,82.535,92.921ZM54.294,50.684c0,6.952-4.928,10.911-13.023,10.911a21.856,21.856,0,0,1-5.28-.44V41.093a29.934,29.934,0,0,1,6.248-.528C49.719,40.565,54.294,44.085,54.294,50.684Z" transform="translate(-0.5 -0.5)" fill="#fff"/>
      </g>
    </g>
    <g id="SVGRepo_iconCarrier-4" data-name="SVGRepo_iconCarrier" transform="translate(916 377)">
      <path id="Subtraction_2" data-name="Subtraction 2" d="M307.486,316H273.514c-15.561,0-23.372,0-29.324-3.032a27.817,27.817,0,0,1-12.158-12.159C229,294.858,229,287.047,229,271.486V237.515c0-15.561,0-23.372,3.033-29.324a27.81,27.81,0,0,1,12.158-12.158C250.142,193,257.953,193,273.514,193h33.971c15.561,0,23.372,0,29.323,3.033a27.817,27.817,0,0,1,12.159,12.158C352,214.142,352,221.953,352,237.515v33.971c0,15.561,0,23.372-3.032,29.323a27.824,27.824,0,0,1-12.159,12.159C330.858,316,323.047,316,307.486,316Zm11.726-75.112a26.966,26.966,0,0,0-11.959,2.664,20.535,20.535,0,0,0-8.964,8.467,22.584,22.584,0,0,0-2.805,11.087,23.454,23.454,0,0,0,2.805,11.974,17.32,17.32,0,0,0,3.445,4.237,19.284,19.284,0,0,0,4.448,2.968,23.966,23.966,0,0,0,10.438,2.318l.4,0a43.2,43.2,0,0,0,8.286-.835,40.609,40.609,0,0,0,7.969-2.465.893.893,0,0,0,.5-.846c-.035-.582-.077-1.167-.118-1.732-.1-1.456-.212-2.961-.212-4.445V224.262a.453.453,0,0,0-.108-.359.435.435,0,0,0-.327-.153.422.422,0,0,0-.06,0h-10.4c-.328,0-.495.2-.495.592v16.673C321.113,240.933,320.157,240.888,319.212,240.888ZM247.5,228.322a.475.475,0,0,0-.441.241.494.494,0,0,0,.077.522L262.645,256l-15.925,26.827a.6.6,0,0,0-.113.57.381.381,0,0,0,.361.159h11.3c.534,0,.93-.04,1.156-.56,1.207-2.194,2.4-4.429,3.548-6.643,1.125-2.173,2.3-4.437,3.506-6.728.308-.587.63-1.2.914-1.734.872-1.65,1.774-3.356,2.594-5.036,1.2,2.287,2.43,4.593,3.672,6.854,1.221,2.229,2.4,4.464,3.506,6.644,1.061,2.1,2.171,4.3,3.3,6.558.324.555.871.595,1.733.595h11.716c.328,0,.516-.061.594-.192s.042-.313-.1-.573l-16.42-27.589L293.34,229.17a.633.633,0,0,0-.022-.6.443.443,0,0,0-.392-.247H282.118a1.227,1.227,0,0,0-.124-.007.869.869,0,0,0-.866.683c-1.075,2.152-2.227,4.387-3.424,6.644-1.19,2.24-2.356,4.475-3.466,6.643-1.131,2.207-2.255,4.485-3.342,6.771-1.089-2.352-2.381-4.684-3.506-6.686-1.242-2.206-2.477-4.455-3.672-6.685s-2.313-4.519-3.3-6.771a1.312,1.312,0,0,0-1.14-.6l-.1,0H247.546Zm70.918,46.334h0a10.965,10.965,0,0,1-7.909-3.29,12.767,12.767,0,0,1,.183-17.342,11.7,11.7,0,0,1,3.727-2.534,11.371,11.371,0,0,1,4.487-.919,11.784,11.784,0,0,1,3.151.434v23.1A12.661,12.661,0,0,1,318.415,274.656Z" transform="translate(-227 -191)" fill="#fff"/>
    </g>
    <g id="SVGRepo_iconCarrier-5" data-name="SVGRepo_iconCarrier" transform="translate(605.501 337.66)">
      <g id="_2069a460dcf28295e231f3111e0426ac" data-name="2069a460dcf28295e231f3111e0426ac" transform="translate(0.499 48.119)">
        <path id="Path_474" data-name="Path 474" d="M135.255,109.353a40.356,40.356,0,0,0-5.746-15.726A43.911,43.911,0,0,0,119.461,82.42l.011-.01L77.1,49.868a1.207,1.207,0,0,0-.1-.076,8.844,8.844,0,0,0-5.368-1.673A9.773,9.773,0,0,0,66.061,49.8a5.653,5.653,0,0,0-2.669,4.327,5.113,5.113,0,0,0,2.053,4.135c2.727,2.151,5.448,4.35,8.172,6.551,2.644,2.137,5.368,4.338,8.08,6.48l-51.9-.035c-5.935,0-9.976,2.787-10.807,7.453a7.48,7.48,0,0,0,1.72,6.012,7.99,7.99,0,0,0,6.249,2.831l3.956,0c5.465,0,10.955-.013,16.437-.026l5.228-.012-47.1,34.845-.187.136A11.915,11.915,0,0,0,.574,130.25a7.68,7.68,0,0,0,1.489,5.833,8.1,8.1,0,0,0,6.582,2.975,12.476,12.476,0,0,0,7.758-2.885l25.434-20.815a33.8,33.8,0,0,0-.226,3.59,33.9,33.9,0,0,0,1.45,7.943,41.7,41.7,0,0,0,9.009,15.6,46.5,46.5,0,0,0,15.737,11.3,50.562,50.562,0,0,0,20.586,4.3h.067a50.682,50.682,0,0,0,20.652-4.369,46.773,46.773,0,0,0,15.728-11.346,42.014,42.014,0,0,0,9-15.622,39.225,39.225,0,0,0,1.418-17.391Zm-46.333,27.5c-15.907,0-28.806-11.539-28.806-25.773S73.016,85.3,88.922,85.3s28.8,11.539,28.8,25.772S104.828,136.849,88.922,136.849Zm16.611-28.038a14.382,14.382,0,0,1-4.442,11.113,17.77,17.77,0,0,1-24.386,0,14.385,14.385,0,0,1-4.439-11.11,14.651,14.651,0,0,1,5.274-10.349,17.838,17.838,0,0,1,22.717,0A14.655,14.655,0,0,1,105.533,108.811Z" transform="translate(-0.499 -48.119)" fill="#fff"/>
      </g>
    </g>
  </g>
</svg>
